<svg xmlns="http://www.w3.org/2000/svg" xmlns:xlink="http://www.w3.org/1999/xlink" xml:space="preserve" version="1.1" style="shape-rendering:geometricPrecision;text-rendering:geometricPrecision;image-rendering:optimizeQuality;" viewBox="0 0 60000 75000" x="0px" y="0px" fill-rule="evenodd" clip-rule="evenodd"><defs><style type="text/css">
   
    .fil0 {fill:black;fill-rule:nonzero}
   
  </style></defs><g><path class="fil0" d="M50978 14365c-32,-134 51,-268 185,-300 134,-32 268,51 300,185l1764 7373c32,134 -51,268 -185,300 -134,32 -268,-51 -300,-185l-1764 -7373zm-34517 35115c125,-57 273,-2 330,123 57,125 2,273 -123,330 -871,398 -1704,839 -2491,1319 -788,480 -1530,999 -2220,1551 -466,373 -909,762 -1326,1166 -414,400 -804,816 -1168,1245 -89,105 -246,118 -352,29 -105,-89 -118,-246 -29,-352 374,-441 775,-869 1203,-1282 428,-414 882,-813 1359,-1195 707,-566 1466,-1097 2273,-1588 802,-488 1652,-938 2544,-1346zm24236 485c-125,-57 -180,-205 -123,-330 57,-125 205,-180 330,-123 909,418 1798,882 2631,1381 798,478 1546,989 2209,1521 498,399 970,815 1414,1249 441,430 856,878 1243,1343 88,106 73,263 -32,351 -106,88 -263,73 -351,-32 -373,-447 -776,-882 -1208,-1304 -432,-422 -893,-828 -1379,-1217 -647,-518 -1375,-1015 -2153,-1482 -819,-491 -1691,-947 -2582,-1356zm-6050 -43099c99,-95 257,-92 353,7 95,99 92,257 -7,353l-1616 1554c-99,95 -257,92 -353,-7 -95,-99 -92,-257 7,-353l1616 -1554zm-8813 8474c99,-95 257,-92 353,7 95,99 92,257 -7,353l-1577 1516c-99,95 -257,92 -353,-7 -95,-99 -92,-257 7,-353l1577 -1516zm-1577 -8115c-99,-95 -102,-253 -7,-353 95,-99 253,-102 353,-7l1616 1554c99,95 102,253 7,353 -95,99 -253,102 -353,7l-1616 -1554zm8813 8474c-99,-95 -102,-253 -7,-353 95,-99 253,-102 353,-7l1577 1516c99,95 102,253 7,353 -95,99 -253,102 -353,7l-1577 -1516zm-10646 -3268c-138,3 -251,-107 -254,-244 -3,-138 107,-251 244,-254l2241 -44c138,-3 251,107 254,244 3,138 -107,251 -244,254l-2241 44zm12224 -239c-138,3 -251,-107 -254,-244 -3,-138 107,-251 244,-254l2187 -43c138,-3 251,107 254,244 3,138 -107,251 -244,254l-2187 43zm-5413 -7351c-3,-138 107,-251 244,-254 138,-3 251,107 254,244l44 2241c3,138 -107,251 -244,254 -138,3 -251,-107 -254,-244l-44 -2241zm239 12224c-3,-138 107,-251 244,-254 138,-3 251,107 254,244l43 2187c3,138 -107,251 -244,254 -138,3 -251,-107 -254,-244l-43 -2187zm334 -8776l846 1363 1578 -373c134,-31 269,52 300,187 11,46 8,92 -6,134l-371 1539 1379 840c118,72 155,225 83,343 -22,37 -53,65 -87,86l-1375 837 375 1559c32,134 -51,268 -185,300 -39,9 -78,9 -114,0l0 1 -1578 -373 -848 1366c-72,117 -226,153 -343,81 -35,-22 -63,-51 -83,-84l-846 -1363 -1578 373c-134,31 -269,-52 -300,-187 -11,-46 -8,-92 6,-134l371 -1539 -1379 -840c-118,-72 -155,-225 -83,-343 22,-37 53,-65 87,-86l1375 -837 -375 -1559c-32,-134 51,-268 185,-300 39,-9 78,-9 114,0l0 -1 1578 373 848 -1366c72,-117 226,-153 343,-81 35,22 63,51 83,84zm517 1778l-731 -1178 -722 1163c-51,99 -165,154 -278,127l-1358 -321 319 1325c33,106 -9,226 -109,286l-1184 721 1184 721 0 0c90,55 138,163 113,270l-323 1341 1358 -321 0 1c101,-24 211,18 268,112l731 1178 722 -1163c51,-99 165,-154 278,-127l1358 321 -319 -1325c-33,-106 9,-226 109,-286l1184 -721 -1184 -721 0 0c-90,-55 -138,-163 -113,-270l323 -1341 -1358 321 0 -1c-101,24 -211,-18 -268,-112zm-23755 30892c50,-128 194,-192 322,-143 128,50 192,194 143,322l-4198 10830c-50,128 -194,192 -322,143 -128,-50 -192,-194 -143,-322l4198 -10830zm1966 -26708c32,-134 166,-216 300,-185 134,32 216,166 185,300l-1764 7373c-32,134 -166,216 -300,185 -134,-32 -216,-166 -185,-300l1764 -7373zm-7956 38714c-77,206 -306,311 -513,234 -206,-77 -311,-306 -234,-513l6147 -16399 -4038 1449c-207,74 -435,-34 -509,-241 -38,-107 -28,-220 19,-314l6098 -12471 -3146 874c-212,59 -432,-66 -491,-278 -19,-70 -19,-142 -1,-208l0 0 3962 -14855c56,-213 274,-340 488,-284 110,29 198,102 248,194l8080 13050c116,187 58,433 -130,548 -60,37 -126,56 -192,59l0 0 -2685 122 2999 3104 4742 -9112 1 1c42,-81 111,-148 202,-185 204,-84 437,14 520,217l4821 11648c23,45 37,95 42,148 18,220 -146,413 -366,431l-2344 200 1056 2492c15,35 24,72 29,108l9228 -3c4,-35 14,-71 28,-105l1056 -2492 -2344 -200c-220,-18 -384,-211 -366,-431 4,-53 19,-103 42,-148l4821 -11648c84,-204 317,-301 520,-217 91,37 160,104 202,185l1 -1 4742 9112 2999 -3104 -2685 -122 0 0c-66,-3 -132,-22 -192,-59 -187,-116 -245,-361 -130,-548l8080 -13050c51,-93 138,-165 248,-194 213,-56 431,71 488,284l3962 14855 0 0c17,66 18,137 -1,208 -59,212 -278,337 -491,278l-3146 -874 6098 12471c47,94 58,207 19,314 -74,207 -302,315 -509,241l-4038 -1449 6147 16399c77,206 -28,436 -234,513 -206,77 -436,-28 -513,-234l-6448 -17203c-77,-206 28,-436 234,-513 95,-35 195,-32 283,2l3915 1405 -6059 -12391c-97,-198 -15,-436 183,-533 91,-44 191,-51 281,-26l0 0 3328 924 -3544 -13289 -7247 11705 2890 131c220,9 391,196 381,416 -4,101 -46,192 -111,259l0 0 -3799 3932 726 1395c102,196 26,437 -170,539 -52,27 -108,42 -163,45l-1803 235 6712 11333c112,190 49,435 -141,547 -49,29 -101,46 -154,53l-2734 500 3273 6487c784,639 1514,1315 2182,2024 708,751 1349,1541 1915,2364 125,181 80,430 -102,555 -181,125 -430,80 -555,-102 -542,-788 -1157,-1546 -1840,-2270 -661,-701 -1383,-1369 -2163,-2000 -5,-4 -9,-7 -14,-11l-81 -65c-1000,-801 -2165,-1561 -3412,-2253 -1135,-629 -2338,-1202 -3546,-1697l-56 2096c-5,217 -183,389 -398,389l0 1 -3331 0c88,271 135,561 135,861 0,773 -313,1473 -820,1979 -507,507 -1206,820 -1979,820 -773,0 -1473,-313 -1979,-820 -507,-507 -820,-1206 -820,-1979 0,-300 47,-590 135,-861l-6737 0c88,271 135,561 135,861 0,773 -313,1473 -820,1979 -507,507 -1206,820 -1979,820 -773,0 -1473,-313 -1979,-820 -507,-507 -820,-1206 -820,-1979 0,-300 47,-590 135,-861l-1739 0c-185,0 -341,-126 -387,-297 -121,-340 -275,-705 -435,-1084 -231,-548 -473,-1122 -653,-1698 -180,61 -352,122 -518,182 -221,80 -450,166 -686,257 -1184,459 -2316,981 -3386,1560 -53,53 -120,88 -192,105 -97,53 -193,107 -288,161 -1214,688 -2344,1450 -3377,2277 -816,653 -1571,1347 -2258,2076 -682,724 -1298,1482 -1840,2270 -125,181 -373,227 -555,102 -181,-125 -227,-373 -102,-555 566,-823 1207,-1612 1915,-2364 713,-756 1495,-1475 2339,-2151 1066,-853 2231,-1640 3483,-2349 101,-57 203,-114 305,-171l1937 -3840 -2734 -500c-53,-7 -105,-24 -154,-53 -190,-112 -253,-357 -141,-547l6712 -11333 -1803 -235c-55,-3 -111,-17 -163,-45 -196,-102 -272,-343 -170,-539l726 -1395 -3799 -3932 0 0c-65,-68 -107,-158 -111,-259 -9,-220 161,-406 381,-416l2890 -131 -7247 -11705 -3544 13289 3328 -924 0 0c90,-25 190,-18 281,26 198,97 279,335 183,533l-6059 12391 3915 -1405c88,-34 188,-37 283,-2 206,77 311,306 234,513l-6448 17203zm31991 -13323l1433 0c184,0 339,124 386,293l1381 3683c77,206 -28,436 -234,513 -46,17 -93,25 -139,25l0 1 -2826 0c-221,0 -400,-179 -400,-400l0 -3715c0,-221 179,-400 400,-400zm1157 800l-757 0 0 2915 1851 0 -1093 -2915zm-7116 -854l3637 0c221,0 400,179 400,400l0 3692c0,221 -179,400 -400,400l-3637 0c-221,0 -400,-179 -400,-400l0 -3692c0,-221 179,-400 400,-400zm3237 800l-2837 0 0 2892 2837 0 0 -2892zm-13393 3915c202,-73 398,-142 588,-207 -110,-578 -124,-1146 35,-1680l1255 -4221c3,-11 7,-21 11,-32l1718 -4908 0 0c54,-156 202,-267 376,-267l4098 -1 -1185 -2797c-85,-203 10,-436 213,-522 40,-17 81,-27 122,-30l0 -1 2348 -200 -4297 -10381 -5198 9988 1868 244c218,28 372,229 344,447 -7,55 -25,106 -52,151l0 0 -6729 11361 2717 497c217,40 360,247 320,464 -7,38 -19,75 -36,108l0 0 -1678 3326c790,-388 1609,-747 2455,-1075 223,-87 458,-174 705,-264zm25035 244c1386,546 2774,1194 4076,1916 787,436 1543,900 2248,1383l-2791 -5532 0 0c-17,-33 -29,-69 -36,-108 -40,-217 104,-424 320,-464l2717 -497 -6729 -11361 0 0c-27,-45 -45,-96 -52,-151 -28,-218 125,-418 344,-447l1868 -244 -5198 -9988 -4297 10381 2348 200 0 1c41,3 82,13 122,30 203,85 298,319 213,522l-1183 2794 1241 0c149,0 292,83 361,227l1209 2522c83,148 64,338 -58,468l-2056 2192c74,179 157,384 248,612 518,1290 1333,3321 1802,3724 355,305 669,511 1006,679 348,172 729,308 1208,468l36 12c6,2 12,4 18,7 387,129 799,272 1013,653zm-6307 1466c773,0 1473,313 1979,820 99,99 190,205 274,318l3354 0 53 -1973c-10,-319 -326,-430 -618,-528 -6,-2 -13,-4 -19,-6l-36 -12c-511,-171 -921,-317 -1308,-509 -397,-197 -763,-436 -1172,-788 -618,-532 -1478,-2673 -2024,-4033 -91,-226 -173,-430 -240,-594l-16413 0 -1169 3933c-306,1031 270,2398 785,3619 130,307 255,606 364,890l1872 0c83,-113 175,-219 274,-318 507,-507 1206,-820 1979,-820 773,0 1473,313 1979,820 99,99 190,205 274,318l7559 0c83,-113 175,-219 274,-318 507,-507 1206,-820 1979,-820zm1413 1385c-362,-362 -861,-585 -1413,-585 -552,0 -1052,224 -1413,585 -362,362 -585,861 -585,1413 0,552 224,1052 585,1413 362,362 861,585 1413,585 552,0 1052,-224 1413,-585 362,-362 585,-861 585,-1413 0,-552 -224,-1052 -585,-1413zm-11738 430c-39,-40 -69,-89 -89,-143 -70,-103 -150,-200 -239,-288 -362,-362 -861,-585 -1413,-585 -552,0 -1052,224 -1413,585 -362,362 -585,861 -585,1413 0,552 224,1052 585,1413 362,362 861,585 1413,585 552,0 1052,-224 1413,-585 362,-362 585,-861 585,-1413 0,-357 -94,-693 -258,-983zm-5581 -9921l16240 0 1928 -2056 -993 -2072 -15731 4 -1444 4123zm2427 -3326l4905 0c221,0 400,179 400,400l0 1579c0,221 -179,400 -400,400l-4905 0c-221,0 -400,-179 -400,-400l0 -1579c0,-221 179,-400 400,-400zm4505 800l-4105 0 0 779 4105 0 0 -779zm26752 5758c-50,-128 14,-273 143,-322 128,-50 273,14 322,143l4198 10830c50,128 -14,273 -143,322 -128,50 -273,-14 -322,-143l-4198 -10830z"/></g><text x="0" y="60015" fill="#000000" font-size="5px" font-weight="bold" font-family="'Helvetica Neue', Helvetica, Arial-Unicode, Arial, Sans-serif">Created by Olena Panasovska</text><text x="0" y="60020" fill="#000000" font-size="5px" font-weight="bold" font-family="'Helvetica Neue', Helvetica, Arial-Unicode, Arial, Sans-serif">from the Noun Project</text></svg>